<?xml version="1.0" encoding="utf-8"?>
<!-- Generator: Adobe Illustrator 19.2.1, SVG Export Plug-In . SVG Version: 6.00 Build 0)  -->
<svg version="1.1" id="Layer_1" xmlns="http://www.w3.org/2000/svg" xmlns:xlink="http://www.w3.org/1999/xlink" x="0px" y="0px"
	 viewBox="0 0 25.2 23" style="enable-background:new 0 0 25.2 23;" xml:space="preserve" width="24" height="24">
<style type="text/css">
	.st0{fill:#FFFFFF;}
</style>
<rect x="0" y="0" transform="matrix(-1.345625e-10 -1 1 -1.345625e-10 -9.830728e-09 3.5417)" class="st0" width="3.5" height="3.5"/>
<rect x="14.9" y="-7.8" transform="matrix(-1.808331e-09 -1 1 -1.808331e-09 13.8333 17.375)" class="st0" width="1.4" height="19.1"/>
<rect x="14.9" y="-1.3" transform="matrix(-1.808331e-09 -1 1 -1.808331e-09 7.3333 23.875)" class="st0" width="1.4" height="19.1"/>
<rect x="14.9" y="5.2" transform="matrix(-1.808331e-09 -1 1 -1.808331e-09 0.875 30.3333)" class="st0" width="1.4" height="19.1"/>
<rect x="14.9" y="11.7" transform="matrix(-1.807053e-09 -1 1 -1.807053e-09 -5.625 36.8333)" class="st0" width="1.4" height="19.1"/>
<rect x="0" y="6.5" transform="matrix(-1.345625e-10 -1 1 -1.345625e-10 -6.5 10.0417)" class="st0" width="3.5" height="3.5"/>
<rect x="0" y="13" transform="matrix(-1.345625e-10 -1 1 -1.345625e-10 -12.9583 16.5)" class="st0" width="3.5" height="3.5"/>
<rect x="0" y="19.5" transform="matrix(-1.345625e-10 -1 1 -1.345625e-10 -19.4583 23)" class="st0" width="3.5" height="3.5"/>
</svg>
