<?xml version="1.0" encoding="utf-8"?>
<!-- Generator: Adobe Illustrator 19.2.1, SVG Export Plug-In . SVG Version: 6.00 Build 0)  -->
<svg version="1.1" id="Layer_1" xmlns="http://www.w3.org/2000/svg" xmlns:xlink="http://www.w3.org/1999/xlink" x="0px" y="0px"
	 viewBox="0 0 25.2 23" style="enable-background:new 0 0 25.2 23;" xml:space="preserve">
<style type="text/css">
	.st0{fill:#FFFFFF;}
</style>
<rect x="0" y="0.1" transform="matrix(-1.345625e-10 -1 1 -1.345625e-10 -6.250000e-02 3.6042)" class="st0" width="3.5" height="3.5"/>
<rect x="7.2" y="0.1" transform="matrix(-1.345625e-10 -1 1 -1.345625e-10 7.1458 10.8125)" class="st0" width="3.5" height="3.5"/>
<rect x="14.4" y="0.1" transform="matrix(-1.345625e-10 -1 1 -1.345625e-10 14.3542 18.0208)" class="st0" width="3.5" height="3.5"/>
<rect x="21.6" y="0.1" transform="matrix(-1.345625e-10 -1 1 -1.345625e-10 21.5625 25.2292)" class="st0" width="3.5" height="3.5"/>
<rect x="0" y="6.5" transform="matrix(-1.345625e-10 -1 1 -1.345625e-10 -6.5208 10.0625)" class="st0" width="3.5" height="3.5"/>
<rect x="7.2" y="6.5" transform="matrix(-1.345625e-10 -1 1 -1.345625e-10 0.6875 17.2708)" class="st0" width="3.5" height="3.5"/>
<rect x="14.4" y="6.5" transform="matrix(-1.345625e-10 -1 1 -1.345625e-10 7.8958 24.4792)" class="st0" width="3.5" height="3.5"/>
<rect x="21.6" y="6.5" transform="matrix(-1.345625e-10 -1 1 -1.345625e-10 15.1042 31.6875)" class="st0" width="3.5" height="3.5"/>
<rect x="0" y="12.9" transform="matrix(-1.345625e-10 -1 1 -1.345625e-10 -12.8958 16.4375)" class="st0" width="3.5" height="3.5"/>
<rect x="7.2" y="12.9" transform="matrix(-1.345625e-10 -1 1 -1.345625e-10 -5.6875 23.6458)" class="st0" width="3.5" height="3.5"/>
<rect x="14.4" y="12.9" transform="matrix(-1.345625e-10 -1 1 -1.345625e-10 1.5208 30.8542)" class="st0" width="3.5" height="3.5"/>
<rect x="21.6" y="12.9" transform="matrix(-1.345625e-10 -1 1 -1.345625e-10 8.7292 38.0625)" class="st0" width="3.5" height="3.5"/>
<rect x="0" y="19.4" transform="matrix(-1.345625e-10 -1 1 -1.345625e-10 -19.3958 22.9375)" class="st0" width="3.5" height="3.5"/>
<rect x="7.2" y="19.4" transform="matrix(-1.345625e-10 -1 1 -1.345625e-10 -12.1875 30.1458)" class="st0" width="3.5" height="3.5"/>
<rect x="14.4" y="19.4" transform="matrix(-1.345625e-10 -1 1 -1.345625e-10 -4.9792 37.3542)" class="st0" width="3.5" height="3.5"/>
<rect x="21.6" y="19.4" transform="matrix(-1.345625e-10 -1 1 -1.345625e-10 2.2292 44.5625)" class="st0" width="3.5" height="3.5"/>
</svg>
